<svg id="Layer_1" data-name="Layer 1" xmlns="http://www.w3.org/2000/svg" viewBox="0 0 14 19"><defs><style>.cls-1{fill:transparent;stroke:#fbb040;stroke-miterlimit:10;}.cls-2{fill:#663695;}</style></defs><path class="cls-1" d="M7.5,14.5h2a0,0,0,0,1,0,0v2a2,2,0,0,1-2,2h-2a0,0,0,0,1,0,0v-2A2,2,0,0,1,7.5,14.5Z"/><path class="cls-1" d="M11.5,10.5h2a0,0,0,0,1,0,0v2a2,2,0,0,1-2,2h-2a0,0,0,0,1,0,0v-2A2,2,0,0,1,11.5,10.5Z"/><path class="cls-2" d="M2,0H4A0,0,0,0,1,4,0V17a2,2,0,0,1-2,2H2a2,2,0,0,1-2-2V2A2,2,0,0,1,2,0Z"/><path class="cls-2" d="M5.5,0h4A4.5,4.5,0,0,1,14,4.5v0A4.5,4.5,0,0,1,9.5,9h-4A.5.5,0,0,1,5,8.5V.5A.5.5,0,0,1,5.5,0Z"/></svg>